<svg xmlns="http://www.w3.org/2000/svg" width="24" height="31"><path fill-rule="evenodd" fill="gray" d="M20.571 31H3.429A3.44 3.44 0 0 1 0 27.556V6.889c0-.95.769-1.722 1.714-1.722h5.143V2.583A2.58 2.58 0 0 1 9.429 0h5.142a2.58 2.58 0 0 1 2.572 2.583v2.584h5.143A1.72 1.72 0 0 1 24 6.889v20.667A3.44 3.44 0 0 1 20.571 31zM3.429 29.278h17.142a1.72 1.72 0 0 0 1.715-1.722v-2.584H1.714v2.584a1.72 1.72 0 0 0 1.715 1.722zm12-26.695a.861.861 0 0 0-.858-.861H9.429a.861.861 0 0 0-.858.861v2.584h6.858V2.583zm1.714 4.306v1.722h-1.714V6.889H8.571v1.722H6.857V6.889H1.714V23.25h20.572V6.889h-5.143z"/><text font-family="Myriad Pro" font-size="10" x="6" y="19"><tspan font-family="Montserrat" fill="gray">02</tspan></text></svg>
