<svg xmlns="http://www.w3.org/2000/svg" width="29" height="31"><path fill-rule="evenodd" fill="gray" d="M28.468 27.765l-8.974 3.197a.803.803 0 0 1-.27.047h-.641a.8.8 0 0 1-.801-.799v-2.398h-6.891a.8.8 0 0 1-.802-.799v-7.672h1.603v6.873h6.09V4.796h-6.09v5.594h-1.603V3.997a.8.8 0 0 1 .802-.799h6.891V.801a.8.8 0 0 1 .801-.8h.641c.092 0 .183.016.27.047l8.974 3.197a.799.799 0 0 1 .532.752v23.016a.798.798 0 0 1-.532.752zM27.397 4.56l-8.013-2.854v27.598l8.013-2.854V4.56zm-5.448 11.584h-1.603v-2.557h1.603v2.557zm-8.569-.713l-5.769 5.754-1.133-1.13 4.401-4.39H-.007v-1.598h10.886l-4.401-4.39 1.133-1.13 5.769 5.754a.797.797 0 0 1 0 1.13z"/></svg>
